<svg xmlns="http://www.w3.org/2000/svg" version="1.1" xmlns:xlink="http://www.w3.org/1999/xlink" xmlns:svgjs="http://svgjs.dev/svgjs" width="1440" height="700" preserveAspectRatio="none" viewBox="0 0 1440 700"><g mask="url(&quot;#SvgjsMask1012&quot;)" fill="none"><rect width="1440" height="700" x="0" y="0" fill="rgba(255, 255, 255, 1)"></rect><path d="M-82.43 489.28L-82.43 489.28" stroke="rgba(19, 102, 98, 1)" stroke-width="1.5"></path><path d="M-82.43 489.28L85.95 498.64" stroke="rgba(19, 102, 98, 1)" stroke-width="1.5"></path><path d="M-82.43 489.28L-62.22 674.15" stroke="rgba(19, 102, 98, 1)" stroke-width="1.5"></path><path d="M-82.43 489.28L59.58 639.75" stroke="rgba(19, 102, 98, 1)" stroke-width="1.5"></path><path d="M-62.22 674.15L-62.22 674.15" stroke="rgba(19, 102, 98, 1)" stroke-width="1.5"></path><path d="M-62.22 674.15L-107.24 791.71" stroke="rgba(19, 102, 98, 1)" stroke-width="1.5"></path><path d="M-62.22 674.15L59.58 639.75" stroke="rgba(19, 102, 98, 1)" stroke-width="1.5"></path><path d="M-107.24 791.71L-107.24 791.71" stroke="rgba(19, 102, 98, 1)" stroke-width="1.5"></path><path d="M-107.24 791.71L98.42 814.52" stroke="rgba(19, 102, 98, 1)" stroke-width="1.5"></path><path d="M-107.24 791.71L59.58 639.75" stroke="rgba(19, 102, 98, 1)" stroke-width="1.5"></path><path d="M-107.24 791.71L-82.43 489.28" stroke="rgba(19, 102, 98, 1)" stroke-width="1.5"></path><path d="M-107.24 791.71L197.11 819.91" stroke="rgba(19, 102, 98, 1)" stroke-width="1.5"></path><path d="M-107.24 791.71L85.95 498.64" stroke="rgba(19, 102, 98, 1)" stroke-width="1.5"></path><path d="M85.95 498.64L85.95 498.64" stroke="rgba(19, 102, 98, 1)" stroke-width="1.5"></path><path d="M85.95 498.64L198.25 505" stroke="rgba(19, 102, 98, 1)" stroke-width="1.5"></path><path d="M85.95 498.64L59.58 639.75" stroke="rgba(19, 102, 98, 1)" stroke-width="1.5"></path><path d="M85.95 498.64L-62.22 674.15" stroke="rgba(19, 102, 98, 1)" stroke-width="1.5"></path><path d="M59.58 639.75L59.58 639.75" stroke="rgba(19, 102, 98, 1)" stroke-width="1.5"></path><path d="M59.58 639.75L98.42 814.52" stroke="rgba(19, 102, 98, 1)" stroke-width="1.5"></path><path d="M59.58 639.75L198.25 505" stroke="rgba(19, 102, 98, 1)" stroke-width="1.5"></path><path d="M98.42 814.52L98.42 814.52" stroke="rgba(19, 102, 98, 1)" stroke-width="1.5"></path><path d="M98.42 814.52L197.11 819.91" stroke="rgba(19, 102, 98, 1)" stroke-width="1.5"></path><path d="M198.25 505L198.25 505" stroke="rgba(19, 102, 98, 1)" stroke-width="1.5"></path><path d="M198.25 505L381.73 521.85" stroke="rgba(19, 102, 98, 1)" stroke-width="1.5"></path><path d="M198.25 505L367.26 650.39" stroke="rgba(19, 102, 98, 1)" stroke-width="1.5"></path><path d="M198.25 505L-82.43 489.28" stroke="rgba(19, 102, 98, 1)" stroke-width="1.5"></path><path d="M198.25 505L-62.22 674.15" stroke="rgba(19, 102, 98, 1)" stroke-width="1.5"></path><path d="M197.11 819.91L197.11 819.91" stroke="rgba(19, 102, 98, 1)" stroke-width="1.5"></path><path d="M197.11 819.91L345.5 798.65" stroke="rgba(19, 102, 98, 1)" stroke-width="1.5"></path><path d="M381.73 521.85L381.73 521.85" stroke="rgba(19, 102, 98, 1)" stroke-width="1.5"></path><path d="M381.73 521.85L367.26 650.39" stroke="rgba(19, 102, 98, 1)" stroke-width="1.5"></path><path d="M381.73 521.85L557.03 560.96" stroke="rgba(19, 102, 98, 1)" stroke-width="1.5"></path><path d="M367.26 650.39L367.26 650.39" stroke="rgba(19, 102, 98, 1)" stroke-width="1.5"></path><path d="M367.26 650.39L493.75 695.98" stroke="rgba(19, 102, 98, 1)" stroke-width="1.5"></path><path d="M367.26 650.39L345.5 798.65" stroke="rgba(19, 102, 98, 1)" stroke-width="1.5"></path><path d="M345.5 798.65L345.5 798.65" stroke="rgba(19, 102, 98, 1)" stroke-width="1.5"></path><path d="M345.5 798.65L489.35 801.58" stroke="rgba(19, 102, 98, 1)" stroke-width="1.5"></path><path d="M345.5 798.65L493.75 695.98" stroke="rgba(19, 102, 98, 1)" stroke-width="1.5"></path><path d="M345.5 798.65L98.42 814.52" stroke="rgba(19, 102, 98, 1)" stroke-width="1.5"></path><path d="M551.57 372.89L551.57 372.89" stroke="rgba(19, 102, 98, 1)" stroke-width="1.5"></path><path d="M551.57 372.89L681.21 384.66" stroke="rgba(19, 102, 98, 1)" stroke-width="1.5"></path><path d="M551.57 372.89L557.03 560.96" stroke="rgba(19, 102, 98, 1)" stroke-width="1.5"></path><path d="M551.57 372.89L656.94 542.5" stroke="rgba(19, 102, 98, 1)" stroke-width="1.5"></path><path d="M551.57 372.89L381.73 521.85" stroke="rgba(19, 102, 98, 1)" stroke-width="1.5"></path><path d="M557.03 560.96L557.03 560.96" stroke="rgba(19, 102, 98, 1)" stroke-width="1.5"></path><path d="M557.03 560.96L656.94 542.5" stroke="rgba(19, 102, 98, 1)" stroke-width="1.5"></path><path d="M557.03 560.96L643.54 661.11" stroke="rgba(19, 102, 98, 1)" stroke-width="1.5"></path><path d="M557.03 560.96L493.75 695.98" stroke="rgba(19, 102, 98, 1)" stroke-width="1.5"></path><path d="M493.75 695.98L493.75 695.98" stroke="rgba(19, 102, 98, 1)" stroke-width="1.5"></path><path d="M493.75 695.98L489.35 801.58" stroke="rgba(19, 102, 98, 1)" stroke-width="1.5"></path><path d="M493.75 695.98L643.54 661.11" stroke="rgba(19, 102, 98, 1)" stroke-width="1.5"></path><path d="M493.75 695.98L381.73 521.85" stroke="rgba(19, 102, 98, 1)" stroke-width="1.5"></path><path d="M489.35 801.58L489.35 801.58" stroke="rgba(19, 102, 98, 1)" stroke-width="1.5"></path><path d="M489.35 801.58L367.26 650.39" stroke="rgba(19, 102, 98, 1)" stroke-width="1.5"></path><path d="M489.35 801.58L690.29 807.68" stroke="rgba(19, 102, 98, 1)" stroke-width="1.5"></path><path d="M489.35 801.58L643.54 661.11" stroke="rgba(19, 102, 98, 1)" stroke-width="1.5"></path><path d="M489.35 801.58L557.03 560.96" stroke="rgba(19, 102, 98, 1)" stroke-width="1.5"></path><path d="M681.21 384.66L681.21 384.66" stroke="rgba(19, 102, 98, 1)" stroke-width="1.5"></path><path d="M681.21 384.66L808.43 341.78" stroke="rgba(19, 102, 98, 1)" stroke-width="1.5"></path><path d="M656.94 542.5L656.94 542.5" stroke="rgba(19, 102, 98, 1)" stroke-width="1.5"></path><path d="M656.94 542.5L643.54 661.11" stroke="rgba(19, 102, 98, 1)" stroke-width="1.5"></path><path d="M656.94 542.5L795.77 544.02" stroke="rgba(19, 102, 98, 1)" stroke-width="1.5"></path><path d="M656.94 542.5L681.21 384.66" stroke="rgba(19, 102, 98, 1)" stroke-width="1.5"></path><path d="M643.54 661.11L643.54 661.11" stroke="rgba(19, 102, 98, 1)" stroke-width="1.5"></path><path d="M643.54 661.11L690.29 807.68" stroke="rgba(19, 102, 98, 1)" stroke-width="1.5"></path><path d="M690.29 807.68L690.29 807.68" stroke="rgba(19, 102, 98, 1)" stroke-width="1.5"></path><path d="M690.29 807.68L820.93 857.12" stroke="rgba(19, 102, 98, 1)" stroke-width="1.5"></path><path d="M690.29 807.68L838.84 705.02" stroke="rgba(19, 102, 98, 1)" stroke-width="1.5"></path><path d="M690.29 807.68L493.75 695.98" stroke="rgba(19, 102, 98, 1)" stroke-width="1.5"></path><path d="M794.36 248.67L794.36 248.67" stroke="rgba(19, 102, 98, 1)" stroke-width="1.5"></path><path d="M794.36 248.67L808.43 341.78" stroke="rgba(19, 102, 98, 1)" stroke-width="1.5"></path><path d="M794.36 248.67L955.97 207.84" stroke="rgba(19, 102, 98, 1)" stroke-width="1.5"></path><path d="M808.43 341.78L808.43 341.78" stroke="rgba(19, 102, 98, 1)" stroke-width="1.5"></path><path d="M808.43 341.78L993.82 359.41" stroke="rgba(19, 102, 98, 1)" stroke-width="1.5"></path><path d="M808.43 341.78L955.97 207.84" stroke="rgba(19, 102, 98, 1)" stroke-width="1.5"></path><path d="M795.77 544.02L795.77 544.02" stroke="rgba(19, 102, 98, 1)" stroke-width="1.5"></path><path d="M795.77 544.02L838.84 705.02" stroke="rgba(19, 102, 98, 1)" stroke-width="1.5"></path><path d="M795.77 544.02L976.51 492.57" stroke="rgba(19, 102, 98, 1)" stroke-width="1.5"></path><path d="M795.77 544.02L643.54 661.11" stroke="rgba(19, 102, 98, 1)" stroke-width="1.5"></path><path d="M795.77 544.02L681.21 384.66" stroke="rgba(19, 102, 98, 1)" stroke-width="1.5"></path><path d="M795.77 544.02L808.43 341.78" stroke="rgba(19, 102, 98, 1)" stroke-width="1.5"></path><path d="M838.84 705.02L838.84 705.02" stroke="rgba(19, 102, 98, 1)" stroke-width="1.5"></path><path d="M838.84 705.02L820.93 857.12" stroke="rgba(19, 102, 98, 1)" stroke-width="1.5"></path><path d="M838.84 705.02L966.64 800.41" stroke="rgba(19, 102, 98, 1)" stroke-width="1.5"></path><path d="M820.93 857.12L820.93 857.12" stroke="rgba(19, 102, 98, 1)" stroke-width="1.5"></path><path d="M971.95 -108.58L971.95 -108.58" stroke="rgba(19, 102, 98, 1)" stroke-width="1.5"></path><path d="M971.95 -108.58L1120.19 -42.63" stroke="rgba(19, 102, 98, 1)" stroke-width="1.5"></path><path d="M971.95 -108.58L986.42 102.8" stroke="rgba(19, 102, 98, 1)" stroke-width="1.5"></path><path d="M971.95 -108.58L1146.52 106.23" stroke="rgba(19, 102, 98, 1)" stroke-width="1.5"></path><path d="M971.95 -108.58L955.97 207.84" stroke="rgba(19, 102, 98, 1)" stroke-width="1.5"></path><path d="M971.95 -108.58L1282.03 -40.75" stroke="rgba(19, 102, 98, 1)" stroke-width="1.5"></path><path d="M971.95 -108.58L1259.43 97.42" stroke="rgba(19, 102, 98, 1)" stroke-width="1.5"></path><path d="M986.42 102.8L986.42 102.8" stroke="rgba(19, 102, 98, 1)" stroke-width="1.5"></path><path d="M986.42 102.8L955.97 207.84" stroke="rgba(19, 102, 98, 1)" stroke-width="1.5"></path><path d="M955.97 207.84L955.97 207.84" stroke="rgba(19, 102, 98, 1)" stroke-width="1.5"></path><path d="M955.97 207.84L993.82 359.41" stroke="rgba(19, 102, 98, 1)" stroke-width="1.5"></path><path d="M955.97 207.84L1118.73 226.69" stroke="rgba(19, 102, 98, 1)" stroke-width="1.5"></path><path d="M993.82 359.41L993.82 359.41" stroke="rgba(19, 102, 98, 1)" stroke-width="1.5"></path><path d="M993.82 359.41L976.51 492.57" stroke="rgba(19, 102, 98, 1)" stroke-width="1.5"></path><path d="M993.82 359.41L1143.79 349.49" stroke="rgba(19, 102, 98, 1)" stroke-width="1.5"></path><path d="M976.51 492.57L976.51 492.57" stroke="rgba(19, 102, 98, 1)" stroke-width="1.5"></path><path d="M976.51 492.57L1090.65 547.2" stroke="rgba(19, 102, 98, 1)" stroke-width="1.5"></path><path d="M976.51 492.57L1143.79 349.49" stroke="rgba(19, 102, 98, 1)" stroke-width="1.5"></path><path d="M976.51 492.57L1098.55 677.42" stroke="rgba(19, 102, 98, 1)" stroke-width="1.5"></path><path d="M966.64 800.41L966.64 800.41" stroke="rgba(19, 102, 98, 1)" stroke-width="1.5"></path><path d="M966.64 800.41L820.93 857.12" stroke="rgba(19, 102, 98, 1)" stroke-width="1.5"></path><path d="M966.64 800.41L1098.55 677.42" stroke="rgba(19, 102, 98, 1)" stroke-width="1.5"></path><path d="M1120.19 -42.63L1120.19 -42.63" stroke="rgba(19, 102, 98, 1)" stroke-width="1.5"></path><path d="M1120.19 -42.63L1146.52 106.23" stroke="rgba(19, 102, 98, 1)" stroke-width="1.5"></path><path d="M1120.19 -42.63L1282.03 -40.75" stroke="rgba(19, 102, 98, 1)" stroke-width="1.5"></path><path d="M1120.19 -42.63L1259.43 97.42" stroke="rgba(19, 102, 98, 1)" stroke-width="1.5"></path><path d="M1120.19 -42.63L986.42 102.8" stroke="rgba(19, 102, 98, 1)" stroke-width="1.5"></path><path d="M1146.52 106.23L1146.52 106.23" stroke="rgba(19, 102, 98, 1)" stroke-width="1.5"></path><path d="M1146.52 106.23L1259.43 97.42" stroke="rgba(19, 102, 98, 1)" stroke-width="1.5"></path><path d="M1146.52 106.23L1118.73 226.69" stroke="rgba(19, 102, 98, 1)" stroke-width="1.5"></path><path d="M1118.73 226.69L1118.73 226.69" stroke="rgba(19, 102, 98, 1)" stroke-width="1.5"></path><path d="M1118.73 226.69L1143.79 349.49" stroke="rgba(19, 102, 98, 1)" stroke-width="1.5"></path><path d="M1118.73 226.69L1265.69 243.54" stroke="rgba(19, 102, 98, 1)" stroke-width="1.5"></path><path d="M1118.73 226.69L986.42 102.8" stroke="rgba(19, 102, 98, 1)" stroke-width="1.5"></path><path d="M1118.73 226.69L993.82 359.41" stroke="rgba(19, 102, 98, 1)" stroke-width="1.5"></path><path d="M1143.79 349.49L1143.79 349.49" stroke="rgba(19, 102, 98, 1)" stroke-width="1.5"></path><path d="M1143.79 349.49L1253.01 404.86" stroke="rgba(19, 102, 98, 1)" stroke-width="1.5"></path><path d="M1090.65 547.2L1090.65 547.2" stroke="rgba(19, 102, 98, 1)" stroke-width="1.5"></path><path d="M1090.65 547.2L1098.55 677.42" stroke="rgba(19, 102, 98, 1)" stroke-width="1.5"></path><path d="M1090.65 547.2L1243.16 494.54" stroke="rgba(19, 102, 98, 1)" stroke-width="1.5"></path><path d="M1090.65 547.2L1242.69 663.32" stroke="rgba(19, 102, 98, 1)" stroke-width="1.5"></path><path d="M1090.65 547.2L1143.79 349.49" stroke="rgba(19, 102, 98, 1)" stroke-width="1.5"></path><path d="M1098.55 677.42L1098.55 677.42" stroke="rgba(19, 102, 98, 1)" stroke-width="1.5"></path><path d="M1148.5 828.11L1148.5 828.11" stroke="rgba(19, 102, 98, 1)" stroke-width="1.5"></path><path d="M1148.5 828.11L1280.16 814.17" stroke="rgba(19, 102, 98, 1)" stroke-width="1.5"></path><path d="M1148.5 828.11L1098.55 677.42" stroke="rgba(19, 102, 98, 1)" stroke-width="1.5"></path><path d="M1148.5 828.11L966.64 800.41" stroke="rgba(19, 102, 98, 1)" stroke-width="1.5"></path><path d="M1148.5 828.11L1242.69 663.32" stroke="rgba(19, 102, 98, 1)" stroke-width="1.5"></path><path d="M1148.5 828.11L1415.6 843.87" stroke="rgba(19, 102, 98, 1)" stroke-width="1.5"></path><path d="M1282.03 -40.75L1282.03 -40.75" stroke="rgba(19, 102, 98, 1)" stroke-width="1.5"></path><path d="M1282.03 -40.75L1259.43 97.42" stroke="rgba(19, 102, 98, 1)" stroke-width="1.5"></path><path d="M1282.03 -40.75L1425.61 -60.26" stroke="rgba(19, 102, 98, 1)" stroke-width="1.5"></path><path d="M1282.03 -40.75L1409.46 71.12" stroke="rgba(19, 102, 98, 1)" stroke-width="1.5"></path><path d="M1282.03 -40.75L1146.52 106.23" stroke="rgba(19, 102, 98, 1)" stroke-width="1.5"></path><path d="M1282.03 -40.75L1551.4 -54.9" stroke="rgba(19, 102, 98, 1)" stroke-width="1.5"></path><path d="M1259.43 97.42L1259.43 97.42" stroke="rgba(19, 102, 98, 1)" stroke-width="1.5"></path><path d="M1259.43 97.42L1265.69 243.54" stroke="rgba(19, 102, 98, 1)" stroke-width="1.5"></path><path d="M1259.43 97.42L1409.46 71.12" stroke="rgba(19, 102, 98, 1)" stroke-width="1.5"></path><path d="M1265.69 243.54L1265.69 243.54" stroke="rgba(19, 102, 98, 1)" stroke-width="1.5"></path><path d="M1265.69 243.54L1143.79 349.49" stroke="rgba(19, 102, 98, 1)" stroke-width="1.5"></path><path d="M1265.69 243.54L1253.01 404.86" stroke="rgba(19, 102, 98, 1)" stroke-width="1.5"></path><path d="M1265.69 243.54L1146.52 106.23" stroke="rgba(19, 102, 98, 1)" stroke-width="1.5"></path><path d="M1253.01 404.86L1253.01 404.86" stroke="rgba(19, 102, 98, 1)" stroke-width="1.5"></path><path d="M1253.01 404.86L1243.16 494.54" stroke="rgba(19, 102, 98, 1)" stroke-width="1.5"></path><path d="M1253.01 404.86L1390.53 410.43" stroke="rgba(19, 102, 98, 1)" stroke-width="1.5"></path><path d="M1253.01 404.86L1423.11 525.53" stroke="rgba(19, 102, 98, 1)" stroke-width="1.5"></path><path d="M1253.01 404.86L1090.65 547.2" stroke="rgba(19, 102, 98, 1)" stroke-width="1.5"></path><path d="M1243.16 494.54L1243.16 494.54" stroke="rgba(19, 102, 98, 1)" stroke-width="1.5"></path><path d="M1243.16 494.54L1242.69 663.32" stroke="rgba(19, 102, 98, 1)" stroke-width="1.5"></path><path d="M1243.16 494.54L1390.53 410.43" stroke="rgba(19, 102, 98, 1)" stroke-width="1.5"></path><path d="M1242.69 663.32L1242.69 663.32" stroke="rgba(19, 102, 98, 1)" stroke-width="1.5"></path><path d="M1242.69 663.32L1098.55 677.42" stroke="rgba(19, 102, 98, 1)" stroke-width="1.5"></path><path d="M1242.69 663.32L1280.16 814.17" stroke="rgba(19, 102, 98, 1)" stroke-width="1.5"></path><path d="M1242.69 663.32L1397.07 707.99" stroke="rgba(19, 102, 98, 1)" stroke-width="1.5"></path><path d="M1280.16 814.17L1280.16 814.17" stroke="rgba(19, 102, 98, 1)" stroke-width="1.5"></path><path d="M1280.16 814.17L1415.6 843.87" stroke="rgba(19, 102, 98, 1)" stroke-width="1.5"></path><path d="M1280.16 814.17L1397.07 707.99" stroke="rgba(19, 102, 98, 1)" stroke-width="1.5"></path><path d="M1280.16 814.17L1098.55 677.42" stroke="rgba(19, 102, 98, 1)" stroke-width="1.5"></path><path d="M1280.16 814.17L1543.67 697.61" stroke="rgba(19, 102, 98, 1)" stroke-width="1.5"></path><path d="M1425.61 -60.26L1425.61 -60.26" stroke="rgba(19, 102, 98, 1)" stroke-width="1.5"></path><path d="M1425.61 -60.26L1551.4 -54.9" stroke="rgba(19, 102, 98, 1)" stroke-width="1.5"></path><path d="M1425.61 -60.26L1409.46 71.12" stroke="rgba(19, 102, 98, 1)" stroke-width="1.5"></path><path d="M1425.61 -60.26L1572.33 100.04" stroke="rgba(19, 102, 98, 1)" stroke-width="1.5"></path><path d="M1425.61 -60.26L1259.43 97.42" stroke="rgba(19, 102, 98, 1)" stroke-width="1.5"></path><path d="M1425.61 -60.26L1450.47 226.01" stroke="rgba(19, 102, 98, 1)" stroke-width="1.5"></path><path d="M1409.46 71.12L1409.46 71.12" stroke="rgba(19, 102, 98, 1)" stroke-width="1.5"></path><path d="M1409.46 71.12L1450.47 226.01" stroke="rgba(19, 102, 98, 1)" stroke-width="1.5"></path><path d="M1409.46 71.12L1572.33 100.04" stroke="rgba(19, 102, 98, 1)" stroke-width="1.5"></path><path d="M1450.47 226.01L1450.47 226.01" stroke="rgba(19, 102, 98, 1)" stroke-width="1.5"></path><path d="M1450.47 226.01L1591.6 223.59" stroke="rgba(19, 102, 98, 1)" stroke-width="1.5"></path><path d="M1390.53 410.43L1390.53 410.43" stroke="rgba(19, 102, 98, 1)" stroke-width="1.5"></path><path d="M1390.53 410.43L1423.11 525.53" stroke="rgba(19, 102, 98, 1)" stroke-width="1.5"></path><path d="M1423.11 525.53L1423.11 525.53" stroke="rgba(19, 102, 98, 1)" stroke-width="1.5"></path><path d="M1423.11 525.53L1565.49 492.86" stroke="rgba(19, 102, 98, 1)" stroke-width="1.5"></path><path d="M1423.11 525.53L1243.16 494.54" stroke="rgba(19, 102, 98, 1)" stroke-width="1.5"></path><path d="M1397.07 707.99L1397.07 707.99" stroke="rgba(19, 102, 98, 1)" stroke-width="1.5"></path><path d="M1397.07 707.99L1415.6 843.87" stroke="rgba(19, 102, 98, 1)" stroke-width="1.5"></path><path d="M1397.07 707.99L1543.67 697.61" stroke="rgba(19, 102, 98, 1)" stroke-width="1.5"></path><path d="M1397.07 707.99L1423.11 525.53" stroke="rgba(19, 102, 98, 1)" stroke-width="1.5"></path><path d="M1397.07 707.99L1568.49 839.16" stroke="rgba(19, 102, 98, 1)" stroke-width="1.5"></path><path d="M1415.6 843.87L1415.6 843.87" stroke="rgba(19, 102, 98, 1)" stroke-width="1.5"></path><path d="M1551.4 -54.9L1551.4 -54.9" stroke="rgba(19, 102, 98, 1)" stroke-width="1.5"></path><path d="M1551.4 -54.9L1572.33 100.04" stroke="rgba(19, 102, 98, 1)" stroke-width="1.5"></path><path d="M1572.33 100.04L1572.33 100.04" stroke="rgba(19, 102, 98, 1)" stroke-width="1.5"></path><path d="M1572.33 100.04L1591.6 223.59" stroke="rgba(19, 102, 98, 1)" stroke-width="1.5"></path><path d="M1572.33 100.04L1450.47 226.01" stroke="rgba(19, 102, 98, 1)" stroke-width="1.5"></path><path d="M1572.33 100.04L1573.55 376.3" stroke="rgba(19, 102, 98, 1)" stroke-width="1.5"></path><path d="M1591.6 223.59L1591.6 223.59" stroke="rgba(19, 102, 98, 1)" stroke-width="1.5"></path><path d="M1573.55 376.3L1573.55 376.3" stroke="rgba(19, 102, 98, 1)" stroke-width="1.5"></path><path d="M1573.55 376.3L1565.49 492.86" stroke="rgba(19, 102, 98, 1)" stroke-width="1.5"></path><path d="M1573.55 376.3L1591.6 223.59" stroke="rgba(19, 102, 98, 1)" stroke-width="1.5"></path><path d="M1573.55 376.3L1390.53 410.43" stroke="rgba(19, 102, 98, 1)" stroke-width="1.5"></path><path d="M1565.49 492.86L1565.49 492.86" stroke="rgba(19, 102, 98, 1)" stroke-width="1.5"></path><path d="M1565.49 492.86L1390.53 410.43" stroke="rgba(19, 102, 98, 1)" stroke-width="1.5"></path><path d="M1565.49 492.86L1543.67 697.61" stroke="rgba(19, 102, 98, 1)" stroke-width="1.5"></path><path d="M1565.49 492.86L1591.6 223.59" stroke="rgba(19, 102, 98, 1)" stroke-width="1.5"></path><path d="M1565.49 492.86L1397.07 707.99" stroke="rgba(19, 102, 98, 1)" stroke-width="1.5"></path><path d="M1543.67 697.61L1543.67 697.61" stroke="rgba(19, 102, 98, 1)" stroke-width="1.5"></path><path d="M1543.67 697.61L1568.49 839.16" stroke="rgba(19, 102, 98, 1)" stroke-width="1.5"></path><path d="M1543.67 697.61L1415.6 843.87" stroke="rgba(19, 102, 98, 1)" stroke-width="1.5"></path><path d="M1543.67 697.61L1423.11 525.53" stroke="rgba(19, 102, 98, 1)" stroke-width="1.5"></path><path d="M1568.49 839.16L1568.49 839.16" stroke="rgba(19, 102, 98, 1)" stroke-width="1.5"></path><path d="M1568.49 839.16L1415.6 843.87" stroke="rgba(19, 102, 98, 1)" stroke-width="1.5"></path><circle r="5" cx="-82.43" cy="489.28" fill="rgba(19, 102, 98, 1)"></circle><circle r="5" cx="-62.22" cy="674.15" fill="rgba(19, 102, 98, 1)"></circle><circle r="5" cx="-107.24" cy="791.71" fill="rgba(19, 102, 98, 1)"></circle><circle r="5" cx="85.95" cy="498.64" fill="rgba(19, 102, 98, 1)"></circle><circle r="5" cx="59.58" cy="639.75" fill="rgba(19, 102, 98, 1)"></circle><circle r="5" cx="98.42" cy="814.52" fill="rgba(19, 102, 98, 1)"></circle><circle r="5" cx="198.25" cy="505" fill="rgba(19, 102, 98, 1)"></circle><circle r="5" cx="197.11" cy="819.91" fill="rgba(19, 102, 98, 1)"></circle><circle r="5" cx="381.73" cy="521.85" fill="rgba(19, 102, 98, 1)"></circle><circle r="5" cx="367.26" cy="650.39" fill="rgba(19, 102, 98, 1)"></circle><circle r="5" cx="345.5" cy="798.65" fill="rgba(19, 102, 98, 1)"></circle><circle r="5" cx="551.57" cy="372.89" fill="rgba(19, 102, 98, 1)"></circle><circle r="5" cx="557.03" cy="560.96" fill="rgba(19, 102, 98, 1)"></circle><circle r="5" cx="493.75" cy="695.98" fill="rgba(19, 102, 98, 1)"></circle><circle r="5" cx="489.35" cy="801.58" fill="rgba(19, 102, 98, 1)"></circle><circle r="5" cx="681.21" cy="384.66" fill="rgba(19, 102, 98, 1)"></circle><circle r="5" cx="656.94" cy="542.5" fill="rgba(19, 102, 98, 1)"></circle><circle r="5" cx="643.54" cy="661.11" fill="rgba(19, 102, 98, 1)"></circle><circle r="5" cx="690.29" cy="807.68" fill="rgba(19, 102, 98, 1)"></circle><circle r="5" cx="794.36" cy="248.67" fill="rgba(19, 102, 98, 1)"></circle><circle r="5" cx="808.43" cy="341.78" fill="rgba(19, 102, 98, 1)"></circle><circle r="5" cx="795.77" cy="544.02" fill="rgba(19, 102, 98, 1)"></circle><circle r="5" cx="838.84" cy="705.02" fill="rgba(19, 102, 98, 1)"></circle><circle r="5" cx="820.93" cy="857.12" fill="rgba(19, 102, 98, 1)"></circle><circle r="5" cx="971.95" cy="-108.58" fill="rgba(19, 102, 98, 1)"></circle><circle r="5" cx="986.42" cy="102.8" fill="rgba(19, 102, 98, 1)"></circle><circle r="5" cx="955.97" cy="207.84" fill="rgba(19, 102, 98, 1)"></circle><circle r="5" cx="993.82" cy="359.41" fill="rgba(19, 102, 98, 1)"></circle><circle r="5" cx="976.51" cy="492.57" fill="rgba(19, 102, 98, 1)"></circle><circle r="5" cx="966.64" cy="800.41" fill="rgba(19, 102, 98, 1)"></circle><circle r="5" cx="1120.19" cy="-42.63" fill="rgba(19, 102, 98, 1)"></circle><circle r="5" cx="1146.52" cy="106.23" fill="rgba(19, 102, 98, 1)"></circle><circle r="5" cx="1118.73" cy="226.69" fill="rgba(19, 102, 98, 1)"></circle><circle r="5" cx="1143.79" cy="349.49" fill="rgba(19, 102, 98, 1)"></circle><circle r="5" cx="1090.65" cy="547.2" fill="rgba(19, 102, 98, 1)"></circle><circle r="5" cx="1098.55" cy="677.42" fill="rgba(19, 102, 98, 1)"></circle><circle r="5" cx="1148.5" cy="828.11" fill="rgba(19, 102, 98, 1)"></circle><circle r="5" cx="1282.03" cy="-40.75" fill="rgba(19, 102, 98, 1)"></circle><circle r="5" cx="1259.43" cy="97.42" fill="rgba(19, 102, 98, 1)"></circle><circle r="5" cx="1265.69" cy="243.54" fill="rgba(19, 102, 98, 1)"></circle><circle r="5" cx="1253.01" cy="404.86" fill="rgba(19, 102, 98, 1)"></circle><circle r="5" cx="1243.16" cy="494.54" fill="rgba(19, 102, 98, 1)"></circle><circle r="5" cx="1242.69" cy="663.32" fill="rgba(19, 102, 98, 1)"></circle><circle r="5" cx="1280.16" cy="814.17" fill="rgba(19, 102, 98, 1)"></circle><circle r="5" cx="1425.61" cy="-60.26" fill="rgba(19, 102, 98, 1)"></circle><circle r="5" cx="1409.46" cy="71.12" fill="rgba(19, 102, 98, 1)"></circle><circle r="5" cx="1450.47" cy="226.01" fill="rgba(19, 102, 98, 1)"></circle><circle r="5" cx="1390.53" cy="410.43" fill="rgba(19, 102, 98, 1)"></circle><circle r="5" cx="1423.11" cy="525.53" fill="rgba(19, 102, 98, 1)"></circle><circle r="5" cx="1397.07" cy="707.99" fill="rgba(19, 102, 98, 1)"></circle><circle r="5" cx="1415.6" cy="843.87" fill="rgba(19, 102, 98, 1)"></circle><circle r="5" cx="1551.4" cy="-54.9" fill="rgba(19, 102, 98, 1)"></circle><circle r="5" cx="1572.33" cy="100.04" fill="rgba(19, 102, 98, 1)"></circle><circle r="5" cx="1591.6" cy="223.59" fill="rgba(19, 102, 98, 1)"></circle><circle r="5" cx="1573.55" cy="376.3" fill="rgba(19, 102, 98, 1)"></circle><circle r="5" cx="1565.49" cy="492.86" fill="rgba(19, 102, 98, 1)"></circle><circle r="5" cx="1543.67" cy="697.61" fill="rgba(19, 102, 98, 1)"></circle><circle r="5" cx="1568.49" cy="839.16" fill="rgba(19, 102, 98, 1)"></circle><path d="M674.67 523.49L674.67 523.49" stroke="hsl(176.70000000000005, 69.5%, 53.5%)" stroke-width="1.5"></path><path d="M674.67 523.49L536.58 508.27" stroke="hsl(176.70000000000005, 69.5%, 53.5%)" stroke-width="1.5"></path><path d="M674.67 523.49L831.24 501.08" stroke="hsl(176.70000000000005, 69.5%, 53.5%)" stroke-width="1.5"></path><path d="M702.34 810.61L702.34 810.61" stroke="hsl(176.70000000000005, 69.5%, 53.5%)" stroke-width="1.5"></path><path d="M702.34 810.61L791.15 790.08" stroke="hsl(176.70000000000005, 69.5%, 53.5%)" stroke-width="1.5"></path><path d="M702.34 810.61L655.21 688.48" stroke="hsl(176.70000000000005, 69.5%, 53.5%)" stroke-width="1.5"></path><path d="M943.83 535.41L943.83 535.41" stroke="hsl(176.70000000000005, 69.5%, 53.5%)" stroke-width="1.5"></path><path d="M943.83 535.41L831.24 501.08" stroke="hsl(176.70000000000005, 69.5%, 53.5%)" stroke-width="1.5"></path><path d="M943.83 535.41L1090.57 521.58" stroke="hsl(176.70000000000005, 69.5%, 53.5%)" stroke-width="1.5"></path><path d="M943.83 535.41L941.93 369.05" stroke="hsl(176.70000000000005, 69.5%, 53.5%)" stroke-width="1.5"></path><path d="M943.83 535.41L984.07 701.99" stroke="hsl(176.70000000000005, 69.5%, 53.5%)" stroke-width="1.5"></path><path d="M1136.32 644.42L1136.32 644.42" stroke="hsl(176.70000000000005, 69.5%, 53.5%)" stroke-width="1.5"></path><path d="M1136.32 644.42L1244.66 697.8" stroke="hsl(176.70000000000005, 69.5%, 53.5%)" stroke-width="1.5"></path><path d="M1136.32 644.42L1090.57 521.58" stroke="hsl(176.70000000000005, 69.5%, 53.5%)" stroke-width="1.5"></path><path d="M1136.32 644.42L1136.88 802.9" stroke="hsl(176.70000000000005, 69.5%, 53.5%)" stroke-width="1.5"></path><path d="M1254.17 505.14L1254.17 505.14" stroke="hsl(176.70000000000005, 69.5%, 53.5%)" stroke-width="1.5"></path><path d="M1254.17 505.14L1090.57 521.58" stroke="hsl(176.70000000000005, 69.5%, 53.5%)" stroke-width="1.5"></path><path d="M1254.17 505.14L1387.59 396.96" stroke="hsl(176.70000000000005, 69.5%, 53.5%)" stroke-width="1.5"></path><path d="M1254.17 505.14L1125.2 377.84" stroke="hsl(176.70000000000005, 69.5%, 53.5%)" stroke-width="1.5"></path><path d="M1254.17 505.14L1136.32 644.42" stroke="hsl(176.70000000000005, 69.5%, 53.5%)" stroke-width="1.5"></path><path d="M1254.17 505.14L1244.66 697.8" stroke="hsl(176.70000000000005, 69.5%, 53.5%)" stroke-width="1.5"></path><path d="M1387.59 396.96L1387.59 396.96" stroke="hsl(176.70000000000005, 69.5%, 53.5%)" stroke-width="1.5"></path><path d="M1387.59 396.96L1459.91 522.3" stroke="hsl(176.70000000000005, 69.5%, 53.5%)" stroke-width="1.5"></path><path d="M1387.59 396.96L1456.04 260.06" stroke="hsl(176.70000000000005, 69.5%, 53.5%)" stroke-width="1.5"></path><path d="M1387.59 396.96L1548.86 402.09" stroke="hsl(176.70000000000005, 69.5%, 53.5%)" stroke-width="1.5"></path><path d="M1427.31 847.39L1427.31 847.39" stroke="hsl(176.70000000000005, 69.5%, 53.5%)" stroke-width="1.5"></path><path d="M1427.31 847.39L1431.57 680.21" stroke="hsl(176.70000000000005, 69.5%, 53.5%)" stroke-width="1.5"></path><path d="M1427.31 847.39L1258.43 840.74" stroke="hsl(176.70000000000005, 69.5%, 53.5%)" stroke-width="1.5"></path><path d="M1427.31 847.39L1244.66 697.8" stroke="hsl(176.70000000000005, 69.5%, 53.5%)" stroke-width="1.5"></path><path d="M1427.31 847.39L1136.88 802.9" stroke="hsl(176.70000000000005, 69.5%, 53.5%)" stroke-width="1.5"></path><path d="M1427.31 847.39L1459.91 522.3" stroke="hsl(176.70000000000005, 69.5%, 53.5%)" stroke-width="1.5"></path><path d="M1596.36 209.52L1596.36 209.52" stroke="hsl(176.70000000000005, 69.5%, 53.5%)" stroke-width="1.5"></path><path d="M1596.36 209.52L1554.21 70.17" stroke="hsl(176.70000000000005, 69.5%, 53.5%)" stroke-width="1.5"></path><path d="M1596.36 209.52L1456.04 260.06" stroke="hsl(176.70000000000005, 69.5%, 53.5%)" stroke-width="1.5"></path><path d="M-64.02 672.06L-64.02 672.06" stroke="hsl(176.70000000000005, 69.5%, 53.5%)" stroke-width="1.5"></path><path d="M-64.02 672.06L67.92 706.46" stroke="hsl(176.70000000000005, 69.5%, 53.5%)" stroke-width="1.5"></path><path d="M-64.02 672.06L59.06 818.3" stroke="hsl(176.70000000000005, 69.5%, 53.5%)" stroke-width="1.5"></path><path d="M67.92 706.46L67.92 706.46" stroke="hsl(176.70000000000005, 69.5%, 53.5%)" stroke-width="1.5"></path><path d="M67.92 706.46L59.06 818.3" stroke="hsl(176.70000000000005, 69.5%, 53.5%)" stroke-width="1.5"></path><path d="M59.06 818.3L59.06 818.3" stroke="hsl(176.70000000000005, 69.5%, 53.5%)" stroke-width="1.5"></path><path d="M59.06 818.3L227.68 811.25" stroke="hsl(176.70000000000005, 69.5%, 53.5%)" stroke-width="1.5"></path><path d="M198.53 662.88L198.53 662.88" stroke="hsl(176.70000000000005, 69.5%, 53.5%)" stroke-width="1.5"></path><path d="M198.53 662.88L67.92 706.46" stroke="hsl(176.70000000000005, 69.5%, 53.5%)" stroke-width="1.5"></path><path d="M198.53 662.88L345.9 673.39" stroke="hsl(176.70000000000005, 69.5%, 53.5%)" stroke-width="1.5"></path><path d="M227.68 811.25L227.68 811.25" stroke="hsl(176.70000000000005, 69.5%, 53.5%)" stroke-width="1.5"></path><path d="M227.68 811.25L198.53 662.88" stroke="hsl(176.70000000000005, 69.5%, 53.5%)" stroke-width="1.5"></path><path d="M227.68 811.25L345.9 673.39" stroke="hsl(176.70000000000005, 69.5%, 53.5%)" stroke-width="1.5"></path><path d="M227.68 811.25L67.92 706.46" stroke="hsl(176.70000000000005, 69.5%, 53.5%)" stroke-width="1.5"></path><path d="M227.68 811.25L496.98 801.06" stroke="hsl(176.70000000000005, 69.5%, 53.5%)" stroke-width="1.5"></path><path d="M345.9 673.39L345.9 673.39" stroke="hsl(176.70000000000005, 69.5%, 53.5%)" stroke-width="1.5"></path><path d="M345.9 673.39L500.77 696.24" stroke="hsl(176.70000000000005, 69.5%, 53.5%)" stroke-width="1.5"></path><path d="M536.58 508.27L536.58 508.27" stroke="hsl(176.70000000000005, 69.5%, 53.5%)" stroke-width="1.5"></path><path d="M536.58 508.27L500.77 696.24" stroke="hsl(176.70000000000005, 69.5%, 53.5%)" stroke-width="1.5"></path><path d="M500.77 696.24L500.77 696.24" stroke="hsl(176.70000000000005, 69.5%, 53.5%)" stroke-width="1.5"></path><path d="M500.77 696.24L496.98 801.06" stroke="hsl(176.70000000000005, 69.5%, 53.5%)" stroke-width="1.5"></path><path d="M500.77 696.24L655.21 688.48" stroke="hsl(176.70000000000005, 69.5%, 53.5%)" stroke-width="1.5"></path><path d="M496.98 801.06L496.98 801.06" stroke="hsl(176.70000000000005, 69.5%, 53.5%)" stroke-width="1.5"></path><path d="M496.98 801.06L655.21 688.48" stroke="hsl(176.70000000000005, 69.5%, 53.5%)" stroke-width="1.5"></path><path d="M655.21 688.48L655.21 688.48" stroke="hsl(176.70000000000005, 69.5%, 53.5%)" stroke-width="1.5"></path><path d="M831.24 501.08L831.24 501.08" stroke="hsl(176.70000000000005, 69.5%, 53.5%)" stroke-width="1.5"></path><path d="M830.18 704.23L830.18 704.23" stroke="hsl(176.70000000000005, 69.5%, 53.5%)" stroke-width="1.5"></path><path d="M830.18 704.23L791.15 790.08" stroke="hsl(176.70000000000005, 69.5%, 53.5%)" stroke-width="1.5"></path><path d="M830.18 704.23L984.07 701.99" stroke="hsl(176.70000000000005, 69.5%, 53.5%)" stroke-width="1.5"></path><path d="M830.18 704.23L702.34 810.61" stroke="hsl(176.70000000000005, 69.5%, 53.5%)" stroke-width="1.5"></path><path d="M830.18 704.23L655.21 688.48" stroke="hsl(176.70000000000005, 69.5%, 53.5%)" stroke-width="1.5"></path><path d="M830.18 704.23L831.24 501.08" stroke="hsl(176.70000000000005, 69.5%, 53.5%)" stroke-width="1.5"></path><path d="M830.18 704.23L943.83 535.41" stroke="hsl(176.70000000000005, 69.5%, 53.5%)" stroke-width="1.5"></path><path d="M791.15 790.08L791.15 790.08" stroke="hsl(176.70000000000005, 69.5%, 53.5%)" stroke-width="1.5"></path><path d="M791.15 790.08L655.21 688.48" stroke="hsl(176.70000000000005, 69.5%, 53.5%)" stroke-width="1.5"></path><path d="M791.15 790.08L984.07 701.99" stroke="hsl(176.70000000000005, 69.5%, 53.5%)" stroke-width="1.5"></path><path d="M941.93 369.05L941.93 369.05" stroke="hsl(176.70000000000005, 69.5%, 53.5%)" stroke-width="1.5"></path><path d="M941.93 369.05L831.24 501.08" stroke="hsl(176.70000000000005, 69.5%, 53.5%)" stroke-width="1.5"></path><path d="M941.93 369.05L1125.2 377.84" stroke="hsl(176.70000000000005, 69.5%, 53.5%)" stroke-width="1.5"></path><path d="M984.07 701.99L984.07 701.99" stroke="hsl(176.70000000000005, 69.5%, 53.5%)" stroke-width="1.5"></path><path d="M984.07 701.99L1011.11 819.32" stroke="hsl(176.70000000000005, 69.5%, 53.5%)" stroke-width="1.5"></path><path d="M1011.11 819.32L1011.11 819.32" stroke="hsl(176.70000000000005, 69.5%, 53.5%)" stroke-width="1.5"></path><path d="M1011.11 819.32L1136.88 802.9" stroke="hsl(176.70000000000005, 69.5%, 53.5%)" stroke-width="1.5"></path><path d="M1011.11 819.32L830.18 704.23" stroke="hsl(176.70000000000005, 69.5%, 53.5%)" stroke-width="1.5"></path><path d="M1141.96 104.76L1141.96 104.76" stroke="hsl(176.70000000000005, 69.5%, 53.5%)" stroke-width="1.5"></path><path d="M1141.96 104.76L1104.35 246.28" stroke="hsl(176.70000000000005, 69.5%, 53.5%)" stroke-width="1.5"></path><path d="M1141.96 104.76L1125.2 377.84" stroke="hsl(176.70000000000005, 69.5%, 53.5%)" stroke-width="1.5"></path><path d="M1141.96 104.76L1437.05 101.53" stroke="hsl(176.70000000000005, 69.5%, 53.5%)" stroke-width="1.5"></path><path d="M1141.96 104.76L941.93 369.05" stroke="hsl(176.70000000000005, 69.5%, 53.5%)" stroke-width="1.5"></path><path d="M1104.35 246.28L1104.35 246.28" stroke="hsl(176.70000000000005, 69.5%, 53.5%)" stroke-width="1.5"></path><path d="M1104.35 246.28L1125.2 377.84" stroke="hsl(176.70000000000005, 69.5%, 53.5%)" stroke-width="1.5"></path><path d="M1104.35 246.28L941.93 369.05" stroke="hsl(176.70000000000005, 69.5%, 53.5%)" stroke-width="1.5"></path><path d="M1104.35 246.28L1090.57 521.58" stroke="hsl(176.70000000000005, 69.5%, 53.5%)" stroke-width="1.5"></path><path d="M1125.2 377.84L1125.2 377.84" stroke="hsl(176.70000000000005, 69.5%, 53.5%)" stroke-width="1.5"></path><path d="M1125.2 377.84L1090.57 521.58" stroke="hsl(176.70000000000005, 69.5%, 53.5%)" stroke-width="1.5"></path><path d="M1090.57 521.58L1090.57 521.58" stroke="hsl(176.70000000000005, 69.5%, 53.5%)" stroke-width="1.5"></path><path d="M1136.88 802.9L1136.88 802.9" stroke="hsl(176.70000000000005, 69.5%, 53.5%)" stroke-width="1.5"></path><path d="M1136.88 802.9L1258.43 840.74" stroke="hsl(176.70000000000005, 69.5%, 53.5%)" stroke-width="1.5"></path><path d="M1136.88 802.9L1244.66 697.8" stroke="hsl(176.70000000000005, 69.5%, 53.5%)" stroke-width="1.5"></path><path d="M1244.66 697.8L1244.66 697.8" stroke="hsl(176.70000000000005, 69.5%, 53.5%)" stroke-width="1.5"></path><path d="M1244.66 697.8L1258.43 840.74" stroke="hsl(176.70000000000005, 69.5%, 53.5%)" stroke-width="1.5"></path><path d="M1244.66 697.8L1431.57 680.21" stroke="hsl(176.70000000000005, 69.5%, 53.5%)" stroke-width="1.5"></path><path d="M1258.43 840.74L1258.43 840.74" stroke="hsl(176.70000000000005, 69.5%, 53.5%)" stroke-width="1.5"></path><path d="M1258.43 840.74L1136.32 644.42" stroke="hsl(176.70000000000005, 69.5%, 53.5%)" stroke-width="1.5"></path><path d="M1258.43 840.74L1431.57 680.21" stroke="hsl(176.70000000000005, 69.5%, 53.5%)" stroke-width="1.5"></path><path d="M1258.43 840.74L1011.11 819.32" stroke="hsl(176.70000000000005, 69.5%, 53.5%)" stroke-width="1.5"></path><path d="M1437.05 101.53L1437.05 101.53" stroke="hsl(176.70000000000005, 69.5%, 53.5%)" stroke-width="1.5"></path><path d="M1437.05 101.53L1554.21 70.17" stroke="hsl(176.70000000000005, 69.5%, 53.5%)" stroke-width="1.5"></path><path d="M1437.05 101.53L1456.04 260.06" stroke="hsl(176.70000000000005, 69.5%, 53.5%)" stroke-width="1.5"></path><path d="M1437.05 101.53L1596.36 209.52" stroke="hsl(176.70000000000005, 69.5%, 53.5%)" stroke-width="1.5"></path><path d="M1437.05 101.53L1577.45 -56.41" stroke="hsl(176.70000000000005, 69.5%, 53.5%)" stroke-width="1.5"></path><path d="M1456.04 260.06L1456.04 260.06" stroke="hsl(176.70000000000005, 69.5%, 53.5%)" stroke-width="1.5"></path><path d="M1459.91 522.3L1459.91 522.3" stroke="hsl(176.70000000000005, 69.5%, 53.5%)" stroke-width="1.5"></path><path d="M1459.91 522.3L1548.86 402.09" stroke="hsl(176.70000000000005, 69.5%, 53.5%)" stroke-width="1.5"></path><path d="M1459.91 522.3L1431.57 680.21" stroke="hsl(176.70000000000005, 69.5%, 53.5%)" stroke-width="1.5"></path><path d="M1459.91 522.3L1254.17 505.14" stroke="hsl(176.70000000000005, 69.5%, 53.5%)" stroke-width="1.5"></path><path d="M1459.91 522.3L1456.04 260.06" stroke="hsl(176.70000000000005, 69.5%, 53.5%)" stroke-width="1.5"></path><path d="M1459.91 522.3L1244.66 697.8" stroke="hsl(176.70000000000005, 69.5%, 53.5%)" stroke-width="1.5"></path><path d="M1431.57 680.21L1431.57 680.21" stroke="hsl(176.70000000000005, 69.5%, 53.5%)" stroke-width="1.5"></path><path d="M1577.45 -56.41L1577.45 -56.41" stroke="hsl(176.70000000000005, 69.5%, 53.5%)" stroke-width="1.5"></path><path d="M1577.45 -56.41L1554.21 70.17" stroke="hsl(176.70000000000005, 69.5%, 53.5%)" stroke-width="1.5"></path><path d="M1577.45 -56.41L1596.36 209.52" stroke="hsl(176.70000000000005, 69.5%, 53.5%)" stroke-width="1.5"></path><path d="M1577.45 -56.41L1456.04 260.06" stroke="hsl(176.70000000000005, 69.5%, 53.5%)" stroke-width="1.5"></path><path d="M1554.21 70.17L1554.21 70.17" stroke="hsl(176.70000000000005, 69.5%, 53.5%)" stroke-width="1.5"></path><path d="M1548.86 402.09L1548.86 402.09" stroke="hsl(176.70000000000005, 69.5%, 53.5%)" stroke-width="1.5"></path><circle r="25" cx="674.67" cy="523.49" fill="url(&quot;#SvgjsRadialGradient1013&quot;)"></circle><circle r="25" cx="702.34" cy="810.61" fill="url(&quot;#SvgjsRadialGradient1013&quot;)"></circle><circle r="25" cx="943.83" cy="535.41" fill="url(&quot;#SvgjsRadialGradient1013&quot;)"></circle><circle r="25" cx="1136.32" cy="644.42" fill="url(&quot;#SvgjsRadialGradient1013&quot;)"></circle><circle r="25" cx="1254.17" cy="505.14" fill="url(&quot;#SvgjsRadialGradient1013&quot;)"></circle><circle r="25" cx="1387.59" cy="396.96" fill="url(&quot;#SvgjsRadialGradient1013&quot;)"></circle><circle r="25" cx="1427.31" cy="847.39" fill="url(&quot;#SvgjsRadialGradient1013&quot;)"></circle><circle r="25" cx="1596.36" cy="209.52" fill="url(&quot;#SvgjsRadialGradient1013&quot;)"></circle><circle r="5" cx="-64.02" cy="672.06" fill="#90d9d5"></circle><circle r="5" cx="67.92" cy="706.46" fill="#90d9d5"></circle><circle r="5" cx="59.06" cy="818.3" fill="#90d9d5"></circle><circle r="5" cx="198.53" cy="662.88" fill="#90d9d5"></circle><circle r="5" cx="227.68" cy="811.25" fill="#90d9d5"></circle><circle r="5" cx="345.9" cy="673.39" fill="#90d9d5"></circle><circle r="5" cx="536.58" cy="508.27" fill="#90d9d5"></circle><circle r="5" cx="500.77" cy="696.24" fill="#90d9d5"></circle><circle r="5" cx="496.98" cy="801.06" fill="#90d9d5"></circle><circle r="5" cx="655.21" cy="688.48" fill="#90d9d5"></circle><circle r="5" cx="831.24" cy="501.08" fill="#90d9d5"></circle><circle r="5" cx="830.18" cy="704.23" fill="#90d9d5"></circle><circle r="5" cx="791.15" cy="790.08" fill="#90d9d5"></circle><circle r="5" cx="941.93" cy="369.05" fill="#90d9d5"></circle><circle r="5" cx="984.07" cy="701.99" fill="#90d9d5"></circle><circle r="5" cx="1011.11" cy="819.32" fill="#90d9d5"></circle><circle r="5" cx="1141.96" cy="104.76" fill="#90d9d5"></circle><circle r="5" cx="1104.35" cy="246.28" fill="#90d9d5"></circle><circle r="5" cx="1125.2" cy="377.84" fill="#90d9d5"></circle><circle r="5" cx="1090.57" cy="521.58" fill="#90d9d5"></circle><circle r="5" cx="1136.88" cy="802.9" fill="#90d9d5"></circle><circle r="5" cx="1244.66" cy="697.8" fill="#90d9d5"></circle><circle r="5" cx="1258.43" cy="840.74" fill="#90d9d5"></circle><circle r="5" cx="1437.05" cy="101.53" fill="#90d9d5"></circle><circle r="5" cx="1456.04" cy="260.06" fill="#90d9d5"></circle><circle r="5" cx="1459.91" cy="522.3" fill="#90d9d5"></circle><circle r="5" cx="1431.57" cy="680.21" fill="#90d9d5"></circle><circle r="5" cx="1577.45" cy="-56.41" fill="#90d9d5"></circle><circle r="5" cx="1554.21" cy="70.17" fill="#90d9d5"></circle><circle r="5" cx="1548.86" cy="402.09" fill="#90d9d5"></circle></g><defs><mask id="SvgjsMask1012"><rect width="1440" height="700" fill="#ffffff"></rect></mask><radialGradient id="SvgjsRadialGradient1013"><stop stop-color="#ffffff" offset="0.1"></stop><stop stop-color="rgba(32, 178, 170, 1)" offset="0.2"></stop><stop stop-color="rgba(32, 178, 170, 0)" offset="1"></stop></radialGradient></defs></svg>